<svg id="Capa_1" enable-background="new 0 0 512 512" height="512" viewBox="0 0 512 512" width="512" xmlns="http://www.w3.org/2000/svg"><g><g><g><circle cx="350.886" cy="219.795" fill="#fceed9" r="146.192"/></g><g><path d="m434.452 99.837c16.531 23.686 26.235 52.491 26.235 83.566 0 80.74-65.453 146.192-146.192 146.192-31.075 0-59.88-9.704-83.566-26.235 26.42 37.855 70.293 62.627 119.958 62.627 80.74 0 146.193-65.453 146.193-146.192-.001-49.665-24.773-93.537-62.628-119.958z" fill="#fad59a"/></g><g><circle cx="350.886" cy="219.795" fill="#d8eafb" r="88.002"/></g><g><path d="m262.884 219.795c0-48.602 39.4-88.002 88.002-88.002s88.002 39.4 88.002 88.002c0 13.561-3.067 26.406-8.546 37.878l-79.456-37.878z" fill="#1690fb"/></g><g><g><path d="m350.887 380.909c-88.839 0-161.114-72.276-161.114-161.114 0-88.839 72.275-161.114 161.114-161.114 88.838 0 161.113 72.275 161.113 161.114 0 88.838-72.275 161.114-161.113 161.114zm0-292.385c-72.383 0-131.271 58.888-131.271 131.271s58.888 131.271 131.271 131.271c72.382 0 131.27-58.888 131.27-131.271s-58.888-131.271-131.27-131.271z" fill="#7c8b96"/></g></g><g><g><path d="m455.803 97.626c24.26 28.21 38.945 64.88 38.945 104.918 0 88.838-72.275 161.114-161.113 161.114-40.038 0-76.708-14.685-104.918-38.945 29.57 34.384 73.368 56.197 122.169 56.197 88.838 0 161.113-72.276 161.113-161.114.001-48.802-21.812-92.6-56.196-122.17z" fill="#465961"/></g></g><g><path d="m395.203 143.755c7.602 13.016 11.963 28.156 11.963 44.317 0 48.602-39.4 88.002-88.002 88.002-16.161 0-31.301-4.361-44.317-11.963 15.261 26.128 43.598 43.685 76.04 43.685 48.602 0 88.002-39.4 88.002-88.002 0-32.441-17.558-60.778-43.686-76.039z" fill="#b3d8fb"/></g><g><path d="m395.203 143.755c7.602 13.016 11.963 28.156 11.963 44.317 0 18.942-5.986 36.486-16.168 50.845l39.344 18.756c5.479-11.472 8.546-24.317 8.546-37.878.001-32.442-17.557-60.779-43.685-76.04z" fill="#0571f9"/></g><g><path d="m356.003 231.638c-5.01 5.01-13.134 5.01-18.144 0s-5.01-13.134 0-18.144c3.357-3.357 47.366-39.219 76.038-62.516 3.067-2.492 7.113 1.555 4.622 4.622-23.297 28.673-59.158 72.681-62.516 76.038z" fill="#7c8b96"/></g><g><path d="m413.898 150.978c-10.205 8.292-22.352 18.175-33.918 27.618-18.723 22.978-38.191 46.747-42.956 52.118.262.318.538.627.836.925 5.01 5.01 13.134 5.01 18.144 0 3.357-3.357 39.219-47.366 62.516-76.038 2.491-3.068-1.556-7.115-4.622-4.623z" fill="#465961"/></g></g><g><g><path d="m66.032 274.297v44.397c0 1.715 2.229 2.382 3.171.949l60.696-92.362-16.85-16.85-92.362 60.696c-1.433.942-.766 3.171.949 3.171h44.396z" fill="#dd636e"/></g><g><g><path d="m119.784 217.165-53.752 81.795v19.733c0 1.715 2.229 2.382 3.171.949l60.696-92.362z" fill="#d82e3d"/></g></g><g><path d="m143.399 194.743-44.918 4.458c-1.68.167-2.41 2.211-1.217 3.404l40.46 40.46c1.194 1.194 3.238.463 3.404-1.217l4.458-44.918c.125-1.256-.931-2.312-2.187-2.187z" fill="#dd636e"/></g><g><path d="m143.357 194.747-11.651 1.156-3.715 37.429 9.681 9.681c1.214 1.214 3.294.471 3.463-1.238l4.447-44.804c.127-1.276-.947-2.351-2.225-2.224z" fill="#d82e3d"/></g><g><path d="m115.709 357.688h-105.709c-5.523 0-10 4.477-10 10v75.631c0 5.523 4.477 10 10 10h105.709z" fill="#1690fb"/></g><g><path d="m231.419 305.814h-105.71c-5.523 0-10 4.477-10 10v137.505h115.709v-147.505z" fill="#f9c301"/></g><g><path d="m337.128 253.528h-95.709c-5.523 0-10 4.477-10 10v189.792h105.709c5.523 0 10-4.477 10-10v-179.792c0-5.523-4.477-10-10-10z" fill="#dd636e"/></g><g><path d="m85.255 357.688v55.004c0 5.618-4.554 10.173-10.173 10.173h-75.082v20.282c0 5.618 4.554 10.173 10.173 10.173h105.537v-95.631h-30.455z" fill="#0571f9"/></g><g><path d="m200.964 305.814v106.878c0 5.618-4.554 10.173-10.173 10.173h-75.082v30.454h115.709v-147.505z" fill="#d4a806"/></g><g><path d="m336.955 253.528h-20.282v159.164c0 5.618-4.555 10.173-10.173 10.173h-75.082v30.454h105.537c5.618 0 10.173-4.554 10.173-10.173v-179.446c0-5.618-4.555-10.172-10.173-10.172z" fill="#d82e3d"/></g></g></g></svg>